<svg xmlns="http://www.w3.org/2000/svg" viewBox="0 0 334.85 139.9"><defs><style>.cls-1{fill:#dbdbdb;}.cls-2{fill:#cacaca;}.cls-3{fill:#f3f3f3;}</style></defs><g id="Layer_2" data-name="Layer 2"><g id="Layer_1-2" data-name="Layer 1"><g id="Stand"><path class="cls-1" d="M331.27,123.91c-2.54-1.49-16.12-5.3-31.82-10s-22.27-20.15-25.24-37.12c-1.76-10-3.66-35.1-4.93-53.88H65.49c-1.26,18.78-3.17,43.84-4.93,53.88-3,17-9.54,32.45-25.24,37.12s-29.27,8.48-31.82,10S0,127.36,0,129.19s.24,6.52,6,8,24.26,2.71,48.92,2.71h225c24.66,0,43.2-1.28,48.93-2.71s6-6.12,6-8S333.82,125.39,331.27,123.91Z"/><path class="cls-2" d="M267.85,0H66.93s-.57,10-1.44,22.94H269.28C268.41,10,267.85,0,267.85,0Z"/><path class="cls-3" d="M312.26,132.71c-31.28,1.58-108.66.18-144.88.18s-114.13,1-145.43-.18C8.17,132.18,0,129.19,0,129.19c0,1.83.24,6.52,6,8s24.26,2.71,48.92,2.71h225c24.66,0,43.2-1.28,48.93-2.71s6-6.12,6-8C334.77,129.19,328.45,131.89,312.26,132.71Z"/></g></g></g></svg>