<svg xmlns="http://www.w3.org/2000/svg" viewBox="0 0 132.78 48.48"><defs><style>.cls-1{fill:#ff5c5f;}</style></defs><g id="Layer_2" data-name="Layer 2"><g id="Layer_1-2" data-name="Layer 1"><path class="cls-1" d="M2.28,48.48A4.09,4.09,0,0,1,.39,46.71,4.17,4.17,0,0,1,0,45.18a12.35,12.35,0,0,1,1.2-4.5A69.49,69.49,0,0,1,4.44,34.2q2-3.66,4.56-7.56-2.1-.18-3.69-.24T2,26.34H.36a4.48,4.48,0,0,1,2.43-2.61A10,10,0,0,1,6.84,23a19,19,0,0,1,2.1.12q1.08.12,2.22.3,3.06-4.56,6.18-8.73T23.19,7.2a57,57,0,0,1,4.65-5.1Q29.94,0,31.14,0a3.11,3.11,0,0,1,1.62.57A11,11,0,0,1,34.62,2.1a7.78,7.78,0,0,0-1.53,2.52q-.93,2-2,5.13T29,16.5q-1,3.66-1.89,7.5t-1.38,7.29a41.92,41.92,0,0,0-.51,6,9.71,9.71,0,0,0,.51,3.57,1.72,1.72,0,0,0,1.65,1.23q1.5,0,3.51-2.13a30.89,30.89,0,0,0,4.41-6.75l.78.78a25,25,0,0,1-4.71,7.92q-2.85,3.12-6,3.12a3.86,3.86,0,0,1-3.72-2.31,14,14,0,0,1-1.14-6.15,34,34,0,0,1,.24-3.84q.24-2.1.72-4.62-2.64-.42-4.8-.69l-4-.51Q9.9,32.16,7.23,37.65T2.28,48.48ZM22,25.74Q22.86,22,24,18t2.43-7.47Q27.72,7,28.92,4.32a19.7,19.7,0,0,0-4.2,4,79,79,0,0,0-4.95,6.84q-2.61,4-5.37,8.79,2,.36,3.93.84Z"/><path class="cls-1" d="M39,45.06a4.06,4.06,0,0,1-3.75-1.8,8.31,8.31,0,0,1-1.11-4.44A26.59,26.59,0,0,1,35.22,32a75.08,75.08,0,0,1,2.85-8.34q1.77-4.38,3.87-8.55t4.23-7.56a44.77,44.77,0,0,1,3.9-5.43q1.77-2,2.85-2a1.33,1.33,0,0,1,1.17.78,7.28,7.28,0,0,1,.72,1.83,7.86,7.86,0,0,1,.27,2,15,15,0,0,1-.81,4.23A47.64,47.64,0,0,1,52,14.64a62.12,62.12,0,0,1-3.48,6.45,59.44,59.44,0,0,1-4.41,6.24,35.06,35.06,0,0,1-5,5.13q-.36,1.62-.57,3.12a20.39,20.39,0,0,0-.21,2.82A6.39,6.39,0,0,0,39,41.76a2.19,2.19,0,0,0,2,1.08,4.8,4.8,0,0,0,3.15-1.41,18,18,0,0,0,3-3.6,30.2,30.2,0,0,0,2.46-4.53l1.08.54a29.86,29.86,0,0,1-5.4,8.22A8.7,8.7,0,0,1,39,45.06Zm.78-15.18a49.8,49.8,0,0,0,4-4.83,59.84,59.84,0,0,0,3.6-5.55Q49,16.62,50.28,14a41.16,41.16,0,0,0,1.95-4.8,11.66,11.66,0,0,0,.69-3.33,1,1,0,0,0-.09-.54.6.6,0,0,0-.21-.18q-.48,0-1.59,1.47t-2.64,4q-1.53,2.52-3.12,5.7t-3,6.69Q40.8,26.46,39.78,29.88Z"/><path class="cls-1" d="M55,45.9a7.38,7.38,0,0,1-5.64-2,7.07,7.07,0,0,1-1.92-5,13.79,13.79,0,0,1,1.35-5.64,23.62,23.62,0,0,1,3.6-5.64,19.88,19.88,0,0,1,5-4.26,10.57,10.57,0,0,1,5.43-1.62,5,5,0,0,1,2.67.75q1.23.75,1.23,3a7.54,7.54,0,0,1-1.32,4.26,13.53,13.53,0,0,1-3.54,3.54A21.82,21.82,0,0,1,57,35.79a21.66,21.66,0,0,1-5.25,1.29,5.29,5.29,0,0,0-.15.93q0,.45,0,.93a8.91,8.91,0,0,0,.15,1.56,4.34,4.34,0,0,0,.66,1.62,3.7,3.7,0,0,0,1.44,1.26,5.3,5.3,0,0,0,2.43.48,10.18,10.18,0,0,0,5.1-1.44A19.82,19.82,0,0,0,66,38.61a24.11,24.11,0,0,0,3.69-5.25l.9.66a22.49,22.49,0,0,1-4.14,6.27A19.37,19.37,0,0,1,61,44.43,13.46,13.46,0,0,1,55,45.9ZM52.14,35.58a17.72,17.72,0,0,0,3.6-1.44,26.27,26.27,0,0,0,3.84-2.43,14.09,14.09,0,0,0,3.06-3.12A6.13,6.13,0,0,0,63.84,25a1.54,1.54,0,0,0-.24-1,1.2,1.2,0,0,0-1-.3,5.47,5.47,0,0,0-3,1,14.56,14.56,0,0,0-3.06,2.79,26.41,26.41,0,0,0-2.67,3.81A18.39,18.39,0,0,0,52.14,35.58Z"/><path class="cls-1" d="M86.7,45.54a4.26,4.26,0,0,1-3-1.17,8.5,8.5,0,0,1-2-2.91,18.67,18.67,0,0,1-1.47-6.84,13.18,13.18,0,0,0,4.56-1.41A7.4,7.4,0,0,0,87,31.47,3.7,3.7,0,0,0,87.9,29a2.35,2.35,0,0,0-.81-1.89A3.08,3.08,0,0,0,85,26.4a5.32,5.32,0,0,0-3.36,1.23,13.23,13.23,0,0,0-2.85,3.21,34.33,34.33,0,0,0-2.34,4.23q-1.05,2.25-1.8,4.32t-1.23,3.45a3.92,3.92,0,0,1-1.11,1.8,2.36,2.36,0,0,1-1.47.48,1.57,1.57,0,0,1-1.32-.63,4.22,4.22,0,0,1-.69-1.83,16.56,16.56,0,0,1-.21-2.82,31.8,31.8,0,0,1,1-7.47,70.83,70.83,0,0,1,2.73-8.61q1.71-4.44,3.75-8.58t4.11-7.5a36.52,36.52,0,0,1,3.84-5.31Q85.86.42,87,.42q.9,0,1.47,1.17A6.62,6.62,0,0,1,89,4.5a13.71,13.71,0,0,1-.9,4.56,25.29,25.29,0,0,1-2.55,5.1A28.87,28.87,0,0,1,81.66,19a26.69,26.69,0,0,1-4.92,3.9,50.06,50.06,0,0,0-2.88,8.85,38.84,38.84,0,0,0-1,7.41q1-2.46,2.37-5.22a43.18,43.18,0,0,1,3.06-5.28A18.22,18.22,0,0,1,82,24.57,6.72,6.72,0,0,1,86.22,23a5.42,5.42,0,0,1,3.93,1.62,5.59,5.59,0,0,1,.66,7.14,8.25,8.25,0,0,1-2.4,2.16,11.52,11.52,0,0,1-2.82,1.23,12,12,0,0,1-2.37.45q.12.54.42,1.8a14.79,14.79,0,0,0,.87,2.55,8.26,8.26,0,0,0,1.41,2.22,2.65,2.65,0,0,0,2,.93,5,5,0,0,0,3.21-1.35,16.21,16.21,0,0,0,3-3.57,34.19,34.19,0,0,0,2.64-5l.66.72a21.34,21.34,0,0,1-2.64,5.64A18.15,18.15,0,0,1,91,43.86,6.91,6.91,0,0,1,86.7,45.54ZM78,19.92a26.67,26.67,0,0,0,4.32-4.53,29.08,29.08,0,0,0,3.18-5.16,10.54,10.54,0,0,0,1.2-4.29V5.67q0-.09-.12-.15-.6.12-2,2.13a53.08,53.08,0,0,0-3.15,5.25Q79.68,16.14,78,19.92Z"/><path class="cls-1" d="M102.06,46.32a7.71,7.71,0,0,1-4.59-1.23A6.79,6.79,0,0,1,95,42a10,10,0,0,1-.72-3.69,6.33,6.33,0,0,1,.48-2.76A3.49,3.49,0,0,1,96,34.17a7,7,0,0,1,1.32-.69,2.65,2.65,0,0,0,.93-.54A39.65,39.65,0,0,0,101.43,29a28.09,28.09,0,0,0,2.67-4.59v-.66a5.2,5.2,0,0,1,.78-3.24,2.19,2.19,0,0,1,1.68-1,1.1,1.1,0,0,1,.81.27,1.14,1.14,0,0,1,.33.63,3.54,3.54,0,0,1-.18,1,5.57,5.57,0,0,0-.18,1.56,12.88,12.88,0,0,0,.81,4.23q.81,2.31,1.62,4.86a17.43,17.43,0,0,1,.81,5.31,11.6,11.6,0,0,1-.09,1.44q-.09.72-.21,1.32a9,9,0,0,0,3.84-2,15,15,0,0,0,3.54-4.83l.6.6a11.08,11.08,0,0,1-3.39,5.13,10.75,10.75,0,0,1-5,2.31,7,7,0,0,1-3.06,3.72A9.38,9.38,0,0,1,102.06,46.32ZM102,44a5.08,5.08,0,0,0,2-.51,3.54,3.54,0,0,0,1.74-2.25,10.83,10.83,0,0,1-4.44-2,12.28,12.28,0,0,1-2.94-2.91q-1.2.06-1.2,1.92a6.67,6.67,0,0,0,1.26,3.9A4.07,4.07,0,0,0,102,44Zm4.14-4a9.6,9.6,0,0,0,.18-1.17q.06-.63.06-1.35a22.68,22.68,0,0,0-.69-5.52q-.69-2.76-1.23-5.28-1.26,2.1-2.76,4.2a27.74,27.74,0,0,1-2.88,3.48,12.22,12.22,0,0,0,2.82,3.42A10.14,10.14,0,0,0,106.14,40.08Z"/><path class="cls-1" d="M120.84,44.88a4.4,4.4,0,0,1-3.66-1.5,5.58,5.58,0,0,1-1.2-3.6,15.31,15.31,0,0,1,.51-3.48,41.85,41.85,0,0,1,1.35-4.41,31.88,31.88,0,0,1,2-4.35,14.43,14.43,0,0,1,2.4-3.33,3.69,3.69,0,0,1,2.55-1.29,1.51,1.51,0,0,1,1,.36,1.34,1.34,0,0,1,.42,1.08,5.71,5.71,0,0,1-.93,2.34q-.93,1.62-2.16,3.69a32.62,32.62,0,0,0-2.16,4.35,11.45,11.45,0,0,0-.93,4.32,4.05,4.05,0,0,0,.69,2.79,2.9,2.9,0,0,0,2.13.69,6.9,6.9,0,0,0,4.38-2,24.06,24.06,0,0,0,4.92-7.14l.66.72a18.74,18.74,0,0,1-5.1,8A10.29,10.29,0,0,1,120.84,44.88ZM128,17.58a3.36,3.36,0,0,1-1.83-.51,1.74,1.74,0,0,1-.81-1.59,2.73,2.73,0,0,1,1.5-2.28,5.53,5.53,0,0,1,3-1,2.81,2.81,0,0,1,1.59.42,1.74,1.74,0,0,1,.63,1.56,3.07,3.07,0,0,1-1.29,2.25A4.2,4.2,0,0,1,128,17.58Z"/></g></g></svg>