<svg xmlns="http://www.w3.org/2000/svg" viewBox="0 0 192.84 48.42"><defs><style>.cls-1{fill:#ff5c5f;}</style></defs><g id="Layer_2" data-name="Layer 2"><g id="Layer_1-2" data-name="Layer 1"><path class="cls-1" d="M4.44,48.42a5.67,5.67,0,0,1-3-.87A2.58,2.58,0,0,1,0,45.3a5.46,5.46,0,0,1,.3-1.65q.3-.93.54-1.71,1.92-5.82,3.57-10.86T7.74,21.3q1.68-4.74,3.54-9.48t4.2-9.9a19.82,19.82,0,0,0-4,1.26Q9.72,4,8.67,4.56a3.76,3.76,0,0,1-1.47.6,1.6,1.6,0,0,1-.72-.3,3.85,3.85,0,0,1-.87-.75,1.31,1.31,0,0,1-.39-.81Q6.84,2.64,9,1.86A36,36,0,0,1,13.68.54,24.27,24.27,0,0,1,18.78,0a21.91,21.91,0,0,1,5.49.72A18.06,18.06,0,0,1,29.4,2.91a12.25,12.25,0,0,1,3.78,3.66,9,9,0,0,1,1.44,5.07A10.06,10.06,0,0,1,33.21,17a12.28,12.28,0,0,1-3.72,3.81,22.21,22.21,0,0,1-5,2.46,38.12,38.12,0,0,1-5.31,1.44,40.48,40.48,0,0,1-4.74.66q-2.1.15-3.06.15h-.54Q9.12,31.68,7.47,37.65T4.44,48.42ZM11.22,24.3a33,33,0,0,0,6.69-1.08,23.69,23.69,0,0,0,6.18-2.58,14.33,14.33,0,0,0,4.5-4.17,10.08,10.08,0,0,0,1.71-5.85,8,8,0,0,0-1.56-5.1,9.52,9.52,0,0,0-4-3,14.24,14.24,0,0,0-5.31-1,86.79,86.79,0,0,0-4.23,10.29Q13.08,17.82,11.22,24.3Z"/><path class="cls-1" d="M33.84,44.82a4.4,4.4,0,0,1-3.66-1.5,5.58,5.58,0,0,1-1.2-3.6,15.31,15.31,0,0,1,.51-3.48,41.85,41.85,0,0,1,1.35-4.41,31.88,31.88,0,0,1,1.95-4.35,14.43,14.43,0,0,1,2.4-3.33,3.69,3.69,0,0,1,2.55-1.29,1.51,1.51,0,0,1,1,.36,1.34,1.34,0,0,1,.42,1.08,5.71,5.71,0,0,1-.93,2.34q-.93,1.62-2.16,3.69a32.62,32.62,0,0,0-2.16,4.35A11.45,11.45,0,0,0,33,39a4.05,4.05,0,0,0,.69,2.79,2.9,2.9,0,0,0,2.13.69,6.9,6.9,0,0,0,4.38-2,24.06,24.06,0,0,0,4.92-7.14l.66.72a18.74,18.74,0,0,1-5.1,8A10.29,10.29,0,0,1,33.84,44.82ZM41,17.52A3.36,3.36,0,0,1,39.15,17a1.74,1.74,0,0,1-.81-1.59,2.73,2.73,0,0,1,1.5-2.28,5.53,5.53,0,0,1,3-1,2.81,2.81,0,0,1,1.59.42,1.74,1.74,0,0,1,.63,1.56,3.07,3.07,0,0,1-1.29,2.25A4.2,4.2,0,0,1,41,17.52Z"/><path class="cls-1" d="M49.08,46a5.35,5.35,0,0,1-4-1.53,6.3,6.3,0,0,1-1.47-4.53,27,27,0,0,1,1-6.39A74.5,74.5,0,0,1,47,25.68l-1.08-.21a7.11,7.11,0,0,1-1.08-.27V23.88l1.32.12,1.44.12q1.26-3.24,2.7-6.24t2.88-5.37a23.16,23.16,0,0,1,2.73-3.75,3.48,3.48,0,0,1,2.25-1.38,1.47,1.47,0,0,1,.93.36,1.3,1.3,0,0,1,.45,1.08,8.19,8.19,0,0,1-1.26,3.36q-1.26,2.28-3.09,5.4T51.6,24.3h2.1q2.22,0,4.38-.06t4.38-.3v1.38q-3.3.3-5.94.48T51.66,26h-.84a55.27,55.27,0,0,0-2.28,6.33,22.62,22.62,0,0,0-1,6.39,6.32,6.32,0,0,0,.78,3.6,2.9,2.9,0,0,0,2.52,1.08A9.21,9.21,0,0,0,57,40.71a24.52,24.52,0,0,0,5.37-7.47l.78.6A27.29,27.29,0,0,1,59.46,40a18.38,18.38,0,0,1-4.89,4.35A10.6,10.6,0,0,1,49.08,46Z"/><path class="cls-1" d="M79.26,45.48a4.26,4.26,0,0,1-3-1.17,8.5,8.5,0,0,1-2-2.91,18.67,18.67,0,0,1-1.47-6.84,13.18,13.18,0,0,0,4.56-1.41,7.4,7.4,0,0,0,2.22-1.74,3.7,3.7,0,0,0,.9-2.49A2.35,2.35,0,0,0,79.65,27a3.08,3.08,0,0,0-2.07-.69,5.32,5.32,0,0,0-3.36,1.23,13.23,13.23,0,0,0-2.85,3.21A34.33,34.33,0,0,0,69,35q-1.05,2.25-1.8,4.32T66,42.78a3.92,3.92,0,0,1-1.11,1.8,2.36,2.36,0,0,1-1.47.48,1.57,1.57,0,0,1-1.32-.63,4.22,4.22,0,0,1-.69-1.83,16.56,16.56,0,0,1-.21-2.82,31.8,31.8,0,0,1,1-7.47A70.83,70.83,0,0,1,65,23.7q1.71-4.44,3.75-8.58t4.11-7.5a36.52,36.52,0,0,1,3.84-5.31Q78.42.36,79.56.36q.9,0,1.47,1.17a6.62,6.62,0,0,1,.57,2.91A13.71,13.71,0,0,1,80.7,9a25.29,25.29,0,0,1-2.55,5.1A28.87,28.87,0,0,1,74.22,19a26.69,26.69,0,0,1-4.92,3.9,50.06,50.06,0,0,0-2.88,8.85,38.84,38.84,0,0,0-1,7.41q1-2.46,2.37-5.22a43.18,43.18,0,0,1,3.06-5.28,18.22,18.22,0,0,1,3.72-4.11,6.72,6.72,0,0,1,4.23-1.59,5.42,5.42,0,0,1,3.93,1.62,5.59,5.59,0,0,1,.66,7.14A8.25,8.25,0,0,1,81,33.84a11.52,11.52,0,0,1-2.82,1.23,12,12,0,0,1-2.37.45q.12.54.42,1.8a14.79,14.79,0,0,0,.87,2.55,8.26,8.26,0,0,0,1.41,2.22,2.65,2.65,0,0,0,2,.93,5,5,0,0,0,3.21-1.35,16.21,16.21,0,0,0,3-3.57,34.19,34.19,0,0,0,2.64-5l.66.72a21.34,21.34,0,0,1-2.64,5.64,18.15,18.15,0,0,1-3.87,4.32A6.91,6.91,0,0,1,79.26,45.48Zm-8.7-25.62a26.67,26.67,0,0,0,4.32-4.53,29.08,29.08,0,0,0,3.18-5.16,10.54,10.54,0,0,0,1.2-4.29V5.61q0-.09-.12-.15-.6.12-2,2.13A53.08,53.08,0,0,0,74,12.84Q72.24,16.08,70.56,19.86Z"/><path class="cls-1" d="M91.14,46a4.62,4.62,0,0,1-3.27-1.26,5,5,0,0,1-1.35-3.84,12.85,12.85,0,0,1,1-4.59,23.59,23.59,0,0,1,2.64-4.92A26.83,26.83,0,0,1,93.93,27a19.39,19.39,0,0,1,4.53-3.18,10.65,10.65,0,0,1,4.8-1.2,6.48,6.48,0,0,1,4,1.26A4,4,0,0,1,109,27.24a2.31,2.31,0,0,1-.93,2.1,3.86,3.86,0,0,1-2.31.54q.12-.54.21-1.08a6.56,6.56,0,0,0,.09-1.08,4.37,4.37,0,0,0-.6-2.31,2.38,2.38,0,0,0-2.22-1,6.12,6.12,0,0,0-3.42,1.17,15.88,15.88,0,0,0-3.33,3.09,27.87,27.87,0,0,0-2.85,4.17,25.67,25.67,0,0,0-2,4.41,12.47,12.47,0,0,0-.72,3.9q0,2.22,1.5,2.22a5,5,0,0,0,3-1.32,25,25,0,0,0,3.36-3.33q1.71-2,3.27-4.17l2.76-3.84q.18-.36.36-.36t.9.24a3.42,3.42,0,0,1,1.08.54,1.09,1.09,0,0,1,.48.9,3.37,3.37,0,0,1-.51,1.47q-.51.93-1.2,2.1a20.28,20.28,0,0,0-1.2,2.37,5.71,5.71,0,0,0-.51,2.22,3.47,3.47,0,0,0,.45,1.71,1.55,1.55,0,0,0,1.47.81q1.56,0,4.2-2.31a26.92,26.92,0,0,0,5.34-7.17l.78.78a23.21,23.21,0,0,1-3.3,5.73,16.5,16.5,0,0,1-4.23,3.87A8.5,8.5,0,0,1,104.46,45a4,4,0,0,1-3.39-1.41,4.81,4.81,0,0,1-1.11-3q0-.3,0-.6t.09-.66a30,30,0,0,1-4.62,5A6.79,6.79,0,0,1,91.14,46Zm10.38-29a3.16,3.16,0,0,1-1.62-.42,1.53,1.53,0,0,1-.72-1.44,2.38,2.38,0,0,1,1.32-2,4.88,4.88,0,0,1,2.64-.84,2.41,2.41,0,0,1,1.41.36,1.59,1.59,0,0,1,.51,1.38A2.68,2.68,0,0,1,104,16,3.64,3.64,0,0,1,101.52,17Zm8.64,1.26a3,3,0,0,1-1.62-.45,1.54,1.54,0,0,1-.72-1.41,2.41,2.41,0,0,1,1.35-2,5,5,0,0,1,2.67-.84,2.3,2.3,0,0,1,1.38.39,1.63,1.63,0,0,1,.54,1.41,2.66,2.66,0,0,1-1.14,2A3.75,3.75,0,0,1,110.16,18.24Z"/><path class="cls-1" d="M134.1,44.4a4.52,4.52,0,0,1-3.33-1.11,3.86,3.86,0,0,1-1.11-2.85,8.35,8.35,0,0,1,.45-2.58q.45-1.38.87-2.82a9.85,9.85,0,0,0,.42-2.76,2.85,2.85,0,0,0-.66-2.16,2.32,2.32,0,0,0-1.62-.6,6.17,6.17,0,0,0-3.78,1.5,20.59,20.59,0,0,0-3.69,3.84q-1.77,2.34-3.33,4.8t-2.76,4.44a5.35,5.35,0,0,1-2-.36,3.26,3.26,0,0,1-1.47-1.08,8.78,8.78,0,0,1,.63-1.86q.63-1.56,1.47-3.78a46.17,46.17,0,0,0,1.47-4.62,17.19,17.19,0,0,0,.63-4.32,3.39,3.39,0,0,1,1.17-.9,3.66,3.66,0,0,1,1.71-.42q1.8,0,1.8,1.62a14.32,14.32,0,0,1-.45,2.85q-.45,1.95-1.17,4.23a43.39,43.39,0,0,1,3.54-4.59,21.7,21.7,0,0,1,4.17-3.72,7.77,7.77,0,0,1,4.35-1.47A3.94,3.94,0,0,1,135,27.39a6.75,6.75,0,0,1,1.11,3.75,9.45,9.45,0,0,1-.6,3.42q-.6,1.56-1.23,3a7.13,7.13,0,0,0-.63,2.88,2.14,2.14,0,0,0,.51,1.65,1.72,1.72,0,0,0,1.17.45,4.58,4.58,0,0,0,3-1.38,17.94,17.94,0,0,0,2.94-3.54,40.13,40.13,0,0,0,2.49-4.38l.78.84a30.25,30.25,0,0,1-2.85,5.25A15.1,15.1,0,0,1,138.27,43,6.91,6.91,0,0,1,134.1,44.4Z"/><path class="cls-1" d="M149.16,45.84a7.38,7.38,0,0,1-5.64-2,7.07,7.07,0,0,1-1.92-5A13.79,13.79,0,0,1,143,33.12a23.62,23.62,0,0,1,3.6-5.64,19.88,19.88,0,0,1,5-4.26A10.57,10.57,0,0,1,157,21.6a5,5,0,0,1,2.67.75q1.23.75,1.23,3a7.54,7.54,0,0,1-1.32,4.26A13.53,13.53,0,0,1,156,33.18a21.82,21.82,0,0,1-4.83,2.55A21.66,21.66,0,0,1,145.92,37a5.29,5.29,0,0,0-.15.93q0,.45,0,.93a8.91,8.91,0,0,0,.15,1.56,4.34,4.34,0,0,0,.66,1.62A3.7,3.7,0,0,0,148,43.32a5.3,5.3,0,0,0,2.43.48,10.18,10.18,0,0,0,5.1-1.44,19.82,19.82,0,0,0,4.71-3.81,24.11,24.11,0,0,0,3.69-5.25l.9.66a22.49,22.49,0,0,1-4.14,6.27,19.37,19.37,0,0,1-5.49,4.14A13.46,13.46,0,0,1,149.16,45.84Zm-2.82-10.32a17.72,17.72,0,0,0,3.6-1.44,26.27,26.27,0,0,0,3.84-2.43,14.09,14.09,0,0,0,3.06-3.12A6.13,6.13,0,0,0,158,25a1.54,1.54,0,0,0-.24-1,1.2,1.2,0,0,0-1-.3,5.47,5.47,0,0,0-3,1.05,14.56,14.56,0,0,0-3.06,2.79,26.41,26.41,0,0,0-2.67,3.81A18.39,18.39,0,0,0,146.34,35.52Z"/><path class="cls-1" d="M182.34,44.4A4.52,4.52,0,0,1,179,43.29a3.86,3.86,0,0,1-1.11-2.85,8.35,8.35,0,0,1,.45-2.58q.45-1.38.87-2.82a9.85,9.85,0,0,0,.42-2.76,2.85,2.85,0,0,0-.66-2.16,2.32,2.32,0,0,0-1.62-.6,6.17,6.17,0,0,0-3.78,1.5,20.59,20.59,0,0,0-3.69,3.84q-1.77,2.34-3.33,4.8T163.8,44.1a5.35,5.35,0,0,1-2-.36,3.26,3.26,0,0,1-1.47-1.08A8.78,8.78,0,0,1,161,40.8q.63-1.56,1.47-3.78A46.17,46.17,0,0,0,164,32.4a17.19,17.19,0,0,0,.63-4.32,3.39,3.39,0,0,1,1.17-.9,3.66,3.66,0,0,1,1.71-.42q1.8,0,1.8,1.62a14.32,14.32,0,0,1-.45,2.85q-.45,1.95-1.17,4.23a43.39,43.39,0,0,1,3.54-4.59,21.7,21.7,0,0,1,4.17-3.72,7.77,7.77,0,0,1,4.35-1.47,3.94,3.94,0,0,1,3.57,1.71,6.75,6.75,0,0,1,1.11,3.75,9.45,9.45,0,0,1-.6,3.42q-.6,1.56-1.23,3a7.13,7.13,0,0,0-.63,2.88,2.14,2.14,0,0,0,.51,1.65,1.72,1.72,0,0,0,1.17.45,4.58,4.58,0,0,0,3-1.38,17.94,17.94,0,0,0,2.94-3.54,40.13,40.13,0,0,0,2.49-4.38l.78.84A30.25,30.25,0,0,1,190,39.33,15.1,15.1,0,0,1,186.51,43,6.91,6.91,0,0,1,182.34,44.4Z"/></g></g></svg>