<svg xmlns="http://www.w3.org/2000/svg" viewBox="0 0 351.67 396.86"><defs><style>.cls-1{fill:#ff5c5f;}</style></defs><g id="Layer_2" data-name="Layer 2"><g id="Capa_1" data-name="Capa 1"><path class="cls-1" d="M124.92,382.52c0-6.12-.23-22.28-.35-43.72-71.2,15.52-86.24-34.46-86.24-34.46-11.62-29.7-28.42-37.6-28.42-37.6-23.26-15.94,1.73-15.62,1.73-15.62,25.69,1.83,39.2,26.5,39.2,26.5,22.85,39.26,59.93,27.94,74.53,21.34,2.3-16.6,8.92-27.93,16.25-34.36C84.79,258.1,25,236.05,25,137.59c0-28.07,10-51,26.37-69C48.73,62.1,40,36,53.88.6c0,0,21.5-6.92,70.4,26.33a241.66,241.66,0,0,1,128.19,0C301.33-6.28,322.81.63,322.81.63c13.95,35.39,5.18,61.5,2.56,68,16.41,18,26.3,40.93,26.3,69,0,98.72-59.84,120.45-116.86,126.82,9.18,7.93,17.37,23.61,17.37,47.58,0,34.37-.32,62.08-.32,70.5,0,0-.67,14.34-65.16,14.34C124.55,396.86,124.92,382.52,124.92,382.52Z"/></g></g></svg>