<svg xmlns="http://www.w3.org/2000/svg" viewBox="0 0 512 490.67">
  <defs>
    <style>
      .cls-1 {
        fill: red;
      }

      .cls-2 {
        fill: #fff;
      }

      .cls-3 {
        fill: #0997dc;
      }
    </style>
  </defs>
  <title>Asset 1</title>
  <g id="Layer_2" data-name="Layer 2">
    <g id="Capa_1" data-name="Capa 1">
      <path class="cls-1" d="M160,490.67H10.67A10.67,10.67,0,0,1,0,480V224a10.67,10.67,0,0,1,10.67-10.67H160A10.67,10.67,0,0,1,170.67,224V480A10.67,10.67,0,0,1,160,490.67ZM21.33,469.33h128V234.67h-128Z"/>
      <path class="cls-2" d="M421.33,469.33H224a119.68,119.68,0,0,1-71.55-24.44,10.72,10.72,0,0,1-3.12-7.56v-192a10.67,10.67,0,0,1,5.89-9.53l18-9L234.67,93.67V21.33a10.68,10.68,0,0,1,4-8.34A67,67,0,0,1,277.33,0c24.68,0,64,39.06,64,85.33a307.27,307.27,0,0,1-17.07,85.34h134.4A53.33,53.33,0,0,1,512,224a52.68,52.68,0,0,1-13.87,35.75A47.72,47.72,0,0,1,485.65,336a47.17,47.17,0,0,1,5,21.33A47.8,47.8,0,0,1,464.32,400a47.3,47.3,0,0,1,5,21.33A48.05,48.05,0,0,1,421.33,469.33ZM170.67,432.45A109.92,109.92,0,0,0,224,448H421.33A26.68,26.68,0,0,0,448,421.33a26.28,26.28,0,0,0-8.43-19.3,10.67,10.67,0,0,1,6.1-18.37A26.43,26.43,0,0,0,460.91,338a10.66,10.66,0,0,1,6.1-18.37,26.43,26.43,0,0,0,9-49.94,10.66,10.66,0,0,1-.7-18.56A32,32,0,0,0,458.66,192H309.33a10.66,10.66,0,0,1-10-14.46A331.79,331.79,0,0,0,320,85.33c0-34.94-31-64-42.67-64A45,45,0,0,0,256,27.11V96a10.86,10.86,0,0,1-1,4.48L191,239.15a10.69,10.69,0,0,1-4.91,5l-15.44,7.73V432.45Z"/>
      <path class="cls-3" d="M160,490.67H10.67A10.67,10.67,0,0,1,0,480V224a10.67,10.67,0,0,1,10.67-10.67H160A10.67,10.67,0,0,1,170.67,224V480A10.67,10.67,0,0,1,160,490.67Z"/>
      <path class="cls-3" d="M421.33,469.33H224a119.68,119.68,0,0,1-71.55-24.44,10.67,10.67,0,0,1,15.08-15.09A101.22,101.22,0,0,0,224,448H421.33A26.68,26.68,0,0,0,448,421.33a26.38,26.38,0,0,0-8.43-19.3,10.67,10.67,0,0,1,6.1-18.37A26.43,26.43,0,0,0,460.91,338a10.66,10.66,0,0,1,6.1-18.37,26.43,26.43,0,0,0,9-49.94,10.65,10.65,0,0,1-.7-18.56A32,32,0,0,0,458.66,192H309.33a10.67,10.67,0,0,1-10-14.47A332.36,332.36,0,0,0,320,85.33c0-34.94-31-64-42.67-64A45,45,0,0,0,256,27.11V96a10.86,10.86,0,0,1-1,4.48L191,239.15a10.69,10.69,0,0,1-4.91,5l-21.33,10.67a10.67,10.67,0,1,1-9.54-19.09l18-9,61.44-133.1V21.33a10.64,10.64,0,0,1,4-8.34A67,67,0,0,1,277.33,0c24.69,0,64,39.06,64,85.33a306.82,306.82,0,0,1-17.06,85.34h134.4A53.33,53.33,0,0,1,512,224a52.68,52.68,0,0,1-13.87,35.75A47.7,47.7,0,0,1,485.67,336a47.8,47.8,0,0,1-21.33,64,47.28,47.28,0,0,1,5,21.33A48.05,48.05,0,0,1,421.33,469.33Z"/>
    </g>
  </g>
</svg>
